G04 #@! TF.GenerationSoftware,KiCad,Pcbnew,8.0.4*
G04 #@! TF.CreationDate,2024-09-01T14:25:38-06:00*
G04 #@! TF.ProjectId,keyboard-pcb-mk1,6b657962-6f61-4726-942d-7063622d6d6b,rev?*
G04 #@! TF.SameCoordinates,Original*
G04 #@! TF.FileFunction,Copper,L1,Top*
G04 #@! TF.FilePolarity,Positive*
%FSLAX46Y46*%
G04 Gerber Fmt 4.6, Leading zero omitted, Abs format (unit mm)*
G04 Created by KiCad (PCBNEW 8.0.4) date 2024-09-01 14:25:38*
%MOMM*%
%LPD*%
G01*
G04 APERTURE LIST*
G04 Aperture macros list*
%AMHorizOval*
0 Thick line with rounded ends*
0 $1 width*
0 $2 $3 position (X,Y) of the first rounded end (center of the circle)*
0 $4 $5 position (X,Y) of the second rounded end (center of the circle)*
0 Add line between two ends*
20,1,$1,$2,$3,$4,$5,0*
0 Add two circle primitives to create the rounded ends*
1,1,$1,$2,$3*
1,1,$1,$4,$5*%
G04 Aperture macros list end*
G04 #@! TA.AperFunction,ComponentPad*
%ADD10HorizOval,2.250000X0.655001X0.730000X-0.655001X-0.730000X0*%
G04 #@! TD*
G04 #@! TA.AperFunction,ComponentPad*
%ADD11C,2.250000*%
G04 #@! TD*
G04 #@! TA.AperFunction,ComponentPad*
%ADD12HorizOval,2.250000X0.020000X0.290000X-0.020000X-0.290000X0*%
G04 #@! TD*
G04 #@! TA.AperFunction,ComponentPad*
%ADD13C,1.905000*%
G04 #@! TD*
G04 #@! TA.AperFunction,ComponentPad*
%ADD14R,1.905000X1.905000*%
G04 #@! TD*
G04 #@! TA.AperFunction,ComponentPad*
%ADD15O,1.700000X2.700000*%
G04 #@! TD*
G04 #@! TA.AperFunction,ViaPad*
%ADD16C,0.800000*%
G04 #@! TD*
G04 #@! TA.AperFunction,Conductor*
%ADD17C,0.254000*%
G04 #@! TD*
G04 APERTURE END LIST*
D10*
X167395001Y-103180000D03*
D11*
X168050000Y-102450000D03*
D12*
X173070000Y-101660000D03*
D11*
X173090000Y-101370000D03*
D13*
X169280000Y-111530000D03*
D14*
X171820000Y-111530000D03*
D10*
X148345001Y-103180000D03*
D11*
X149000000Y-102450000D03*
D12*
X154020000Y-101660000D03*
D11*
X154040000Y-101370000D03*
D13*
X150230000Y-111530000D03*
D14*
X152770000Y-111530000D03*
D10*
X167395001Y-122230000D03*
D11*
X168050000Y-121500000D03*
D12*
X173070000Y-120710000D03*
D11*
X173090000Y-120420000D03*
D13*
X169280000Y-130580000D03*
D14*
X171820000Y-130580000D03*
D10*
X148345001Y-122230000D03*
D11*
X149000000Y-121500000D03*
D12*
X154020000Y-120710000D03*
D11*
X154040000Y-120420000D03*
D13*
X150230000Y-130580000D03*
D14*
X152770000Y-130580000D03*
D15*
X101683000Y-98703000D03*
X94383000Y-98703000D03*
X101683000Y-103203000D03*
X94383000Y-103203000D03*
D16*
X120263000Y-121588000D03*
X117591000Y-109371000D03*
X133593000Y-127659000D03*
X140959000Y-115975000D03*
X120263000Y-116859000D03*
X111065500Y-110562500D03*
X104383000Y-128167000D03*
D17*
X120263000Y-116859000D02*
X120263000Y-112043000D01*
X120263000Y-121588000D02*
X120662999Y-121987999D01*
X120263000Y-112043000D02*
X117591000Y-109371000D01*
X140959000Y-126897000D02*
X140959000Y-115975000D01*
X125211000Y-127659000D02*
X132577000Y-127659000D01*
X133593000Y-127659000D02*
X140197000Y-127659000D01*
X140197000Y-127659000D02*
X140959000Y-126897000D01*
X120662999Y-121987999D02*
X120662999Y-123110999D01*
X120662999Y-123110999D02*
X123179000Y-125627000D01*
X120263000Y-121588000D02*
X120263000Y-116859000D01*
X123179000Y-125627000D02*
X125211000Y-127659000D01*
X147690000Y-122960000D02*
X147690000Y-103910000D01*
X166740000Y-122960000D02*
X166740000Y-103910000D01*
X111065500Y-111128185D02*
X110987000Y-111206685D01*
X110987000Y-111206685D02*
X110987000Y-121563000D01*
X111065500Y-110562500D02*
X111065500Y-111128185D01*
X110987000Y-121563000D02*
X104383000Y-128167000D01*
M02*
