G04 #@! TF.GenerationSoftware,KiCad,Pcbnew,8.0.4*
G04 #@! TF.CreationDate,2024-09-01T14:25:38-06:00*
G04 #@! TF.ProjectId,keyboard-pcb-mk1,6b657962-6f61-4726-942d-7063622d6d6b,rev?*
G04 #@! TF.SameCoordinates,Original*
G04 #@! TF.FileFunction,Copper,L2,Bot*
G04 #@! TF.FilePolarity,Positive*
%FSLAX46Y46*%
G04 Gerber Fmt 4.6, Leading zero omitted, Abs format (unit mm)*
G04 Created by KiCad (PCBNEW 8.0.4) date 2024-09-01 14:25:38*
%MOMM*%
%LPD*%
G01*
G04 APERTURE LIST*
G04 Aperture macros list*
%AMRoundRect*
0 Rectangle with rounded corners*
0 $1 Rounding radius*
0 $2 $3 $4 $5 $6 $7 $8 $9 X,Y pos of 4 corners*
0 Add a 4 corners polygon primitive as box body*
4,1,4,$2,$3,$4,$5,$6,$7,$8,$9,$2,$3,0*
0 Add four circle primitives for the rounded corners*
1,1,$1+$1,$2,$3*
1,1,$1+$1,$4,$5*
1,1,$1+$1,$6,$7*
1,1,$1+$1,$8,$9*
0 Add four rect primitives between the rounded corners*
20,1,$1+$1,$2,$3,$4,$5,0*
20,1,$1+$1,$4,$5,$6,$7,0*
20,1,$1+$1,$6,$7,$8,$9,0*
20,1,$1+$1,$8,$9,$2,$3,0*%
%AMHorizOval*
0 Thick line with rounded ends*
0 $1 width*
0 $2 $3 position (X,Y) of the first rounded end (center of the circle)*
0 $4 $5 position (X,Y) of the second rounded end (center of the circle)*
0 Add line between two ends*
20,1,$1,$2,$3,$4,$5,0*
0 Add two circle primitives to create the rounded ends*
1,1,$1,$2,$3*
1,1,$1,$4,$5*%
G04 Aperture macros list end*
G04 #@! TA.AperFunction,ComponentPad*
%ADD10HorizOval,2.250000X0.655001X0.730000X-0.655001X-0.730000X0*%
G04 #@! TD*
G04 #@! TA.AperFunction,ComponentPad*
%ADD11C,2.250000*%
G04 #@! TD*
G04 #@! TA.AperFunction,ComponentPad*
%ADD12HorizOval,2.250000X0.020000X0.290000X-0.020000X-0.290000X0*%
G04 #@! TD*
G04 #@! TA.AperFunction,ComponentPad*
%ADD13C,1.905000*%
G04 #@! TD*
G04 #@! TA.AperFunction,ComponentPad*
%ADD14R,1.905000X1.905000*%
G04 #@! TD*
G04 #@! TA.AperFunction,SMDPad,CuDef*
%ADD15RoundRect,0.243750X0.243750X0.456250X-0.243750X0.456250X-0.243750X-0.456250X0.243750X-0.456250X0*%
G04 #@! TD*
G04 #@! TA.AperFunction,SMDPad,CuDef*
%ADD16RoundRect,0.243750X0.456250X-0.243750X0.456250X0.243750X-0.456250X0.243750X-0.456250X-0.243750X0*%
G04 #@! TD*
G04 #@! TA.AperFunction,SMDPad,CuDef*
%ADD17RoundRect,0.243750X-0.456250X0.243750X-0.456250X-0.243750X0.456250X-0.243750X0.456250X0.243750X0*%
G04 #@! TD*
G04 #@! TA.AperFunction,SMDPad,CuDef*
%ADD18R,1.200000X0.900000*%
G04 #@! TD*
G04 #@! TA.AperFunction,SMDPad,CuDef*
%ADD19R,1.500000X0.550000*%
G04 #@! TD*
G04 #@! TA.AperFunction,SMDPad,CuDef*
%ADD20R,0.550000X1.500000*%
G04 #@! TD*
G04 #@! TA.AperFunction,SMDPad,CuDef*
%ADD21R,1.400000X1.200000*%
G04 #@! TD*
G04 #@! TA.AperFunction,SMDPad,CuDef*
%ADD22R,0.500000X2.250000*%
G04 #@! TD*
G04 #@! TA.AperFunction,ComponentPad*
%ADD23O,1.700000X2.700000*%
G04 #@! TD*
G04 #@! TA.AperFunction,SMDPad,CuDef*
%ADD24R,1.800000X1.100000*%
G04 #@! TD*
G04 #@! TA.AperFunction,SMDPad,CuDef*
%ADD25RoundRect,0.250000X0.625000X-0.375000X0.625000X0.375000X-0.625000X0.375000X-0.625000X-0.375000X0*%
G04 #@! TD*
G04 #@! TA.AperFunction,ViaPad*
%ADD26C,0.800000*%
G04 #@! TD*
G04 #@! TA.AperFunction,Conductor*
%ADD27C,0.254000*%
G04 #@! TD*
G04 APERTURE END LIST*
D10*
X167395001Y-103180000D03*
D11*
X168050000Y-102450000D03*
D12*
X173070000Y-101660000D03*
D11*
X173090000Y-101370000D03*
D13*
X169280000Y-111530000D03*
D14*
X171820000Y-111530000D03*
D10*
X148345001Y-103180000D03*
D11*
X149000000Y-102450000D03*
D12*
X154020000Y-101660000D03*
D11*
X154040000Y-101370000D03*
D13*
X150230000Y-111530000D03*
D14*
X152770000Y-111530000D03*
D10*
X167395001Y-122230000D03*
D11*
X168050000Y-121500000D03*
D12*
X173070000Y-120710000D03*
D11*
X173090000Y-120420000D03*
D13*
X169280000Y-130580000D03*
D14*
X171820000Y-130580000D03*
D10*
X148345001Y-122230000D03*
D11*
X149000000Y-121500000D03*
D12*
X154020000Y-120710000D03*
D11*
X154040000Y-120420000D03*
D13*
X150230000Y-130580000D03*
D14*
X152770000Y-130580000D03*
D15*
X132498500Y-127659000D03*
X130623500Y-127659000D03*
D16*
X119877000Y-111070500D03*
X119877000Y-109195500D03*
X139181000Y-115896500D03*
X139181000Y-114021500D03*
D17*
X131815000Y-104115500D03*
X131815000Y-105990500D03*
D16*
X122925000Y-105990500D03*
X122925000Y-104115500D03*
D17*
X116448000Y-116942500D03*
X116448000Y-118817500D03*
D18*
X178424000Y-108481000D03*
X178424000Y-105181000D03*
X178551000Y-127531000D03*
X178551000Y-124231000D03*
D16*
X139181000Y-123516500D03*
X139181000Y-121641500D03*
D19*
X122051000Y-122388000D03*
X122051000Y-121588000D03*
X122051000Y-120788000D03*
X122051000Y-119988000D03*
X122051000Y-119188000D03*
X122051000Y-118388000D03*
X122051000Y-117588000D03*
X122051000Y-116788000D03*
X122051000Y-115988000D03*
X122051000Y-115188000D03*
X122051000Y-114388000D03*
D20*
X123751000Y-112688000D03*
X124551000Y-112688000D03*
X125351000Y-112688000D03*
X126151000Y-112688000D03*
X126951000Y-112688000D03*
X127751000Y-112688000D03*
X128551000Y-112688000D03*
X129351000Y-112688000D03*
X130151000Y-112688000D03*
X130951000Y-112688000D03*
X131751000Y-112688000D03*
D19*
X133451000Y-114388000D03*
X133451000Y-115188000D03*
X133451000Y-115988000D03*
X133451000Y-116788000D03*
X133451000Y-117588000D03*
X133451000Y-118388000D03*
X133451000Y-119188000D03*
X133451000Y-119988000D03*
X133451000Y-120788000D03*
X133451000Y-121588000D03*
X133451000Y-122388000D03*
D20*
X131751000Y-124088000D03*
X130951000Y-124088000D03*
X130151000Y-124088000D03*
X129351000Y-124088000D03*
X128551000Y-124088000D03*
X127751000Y-124088000D03*
X126951000Y-124088000D03*
X126151000Y-124088000D03*
X125351000Y-124088000D03*
X124551000Y-124088000D03*
X123751000Y-124088000D03*
D21*
X128470000Y-105903000D03*
X126270000Y-105903000D03*
X126270000Y-104203000D03*
X128470000Y-104203000D03*
D16*
X100065000Y-110562500D03*
X100065000Y-108687500D03*
D22*
X99633000Y-103203000D03*
X98833000Y-103203000D03*
X98033000Y-103203000D03*
X97233000Y-103203000D03*
X96433000Y-103203000D03*
D23*
X101683000Y-98703000D03*
X94383000Y-98703000D03*
X101683000Y-103203000D03*
X94383000Y-103203000D03*
D16*
X113781000Y-110562500D03*
X113781000Y-108687500D03*
D24*
X94679000Y-131795000D03*
X100879000Y-128095000D03*
X94679000Y-128095000D03*
X100879000Y-131795000D03*
D16*
X95239000Y-110562500D03*
X95239000Y-108687500D03*
D17*
X117591000Y-123165500D03*
X117591000Y-125040500D03*
D25*
X90159000Y-116359000D03*
X90159000Y-113559000D03*
D18*
X160136000Y-127785000D03*
X160136000Y-124485000D03*
X159628000Y-108354000D03*
X159628000Y-105054000D03*
D26*
X120263000Y-121588000D03*
X117591000Y-109371000D03*
X133593000Y-127659000D03*
X140959000Y-115975000D03*
X120263000Y-116859000D03*
X111065500Y-110562500D03*
X104383000Y-128167000D03*
D27*
X126670000Y-105903000D02*
X128370000Y-104203000D01*
X130545000Y-115975000D02*
X132132000Y-114388000D01*
X123179000Y-127285066D02*
X124314934Y-127285066D01*
X124551000Y-121207000D02*
X124551000Y-124088000D01*
X139181000Y-123516500D02*
X139181000Y-124865000D01*
X128370000Y-104203000D02*
X128470000Y-104203000D01*
X126151000Y-112688000D02*
X126151000Y-113692000D01*
X131561000Y-130199000D02*
X130623500Y-129261500D01*
X139181000Y-124865000D02*
X133847000Y-130199000D01*
X124314934Y-127285066D02*
X124551000Y-127049000D01*
X130623500Y-129261500D02*
X130623500Y-127659000D01*
X93285500Y-125040500D02*
X117591000Y-125040500D01*
X130623500Y-127659000D02*
X130623500Y-126859000D01*
X124551000Y-127049000D02*
X124551000Y-124088000D01*
X117591000Y-125040500D02*
X120934434Y-125040500D01*
X130545000Y-115975000D02*
X130545000Y-120801000D01*
X126151000Y-111684000D02*
X126151000Y-112688000D01*
X92445000Y-130715000D02*
X92445000Y-125881000D01*
X121147000Y-105561000D02*
X121147000Y-102259000D01*
X128434000Y-115975000D02*
X130545000Y-115975000D01*
X120934434Y-125040500D02*
X123179000Y-127285066D01*
X122925000Y-105990500D02*
X121576500Y-105990500D01*
X131727500Y-104203000D02*
X131815000Y-104115500D01*
X126151000Y-113692000D02*
X128434000Y-115975000D01*
X92445000Y-125881000D02*
X93285500Y-125040500D01*
X133847000Y-130199000D02*
X131561000Y-130199000D01*
X130951000Y-121207000D02*
X130951000Y-124088000D01*
X123344000Y-119188000D02*
X122051000Y-119188000D01*
X130951000Y-126531500D02*
X130951000Y-125092000D01*
X126151000Y-109804000D02*
X126151000Y-111073000D01*
X130951000Y-125092000D02*
X130951000Y-124088000D01*
X124957000Y-120801000D02*
X124551000Y-121207000D01*
X126270000Y-105903000D02*
X126670000Y-105903000D01*
X128470000Y-102216000D02*
X128470000Y-104203000D01*
X130623500Y-126859000D02*
X130951000Y-126531500D01*
X94679000Y-131795000D02*
X93525000Y-131795000D01*
X121068500Y-110387000D02*
X125465000Y-110387000D01*
X130545000Y-120801000D02*
X124957000Y-120801000D01*
X138014500Y-114388000D02*
X133451000Y-114388000D01*
X128005000Y-101751000D02*
X128470000Y-102216000D01*
X126151000Y-111073000D02*
X126151000Y-111684000D01*
X138381000Y-114021500D02*
X138014500Y-114388000D01*
X128470000Y-104203000D02*
X131727500Y-104203000D01*
X121147000Y-102259000D02*
X121655000Y-101751000D01*
X119877000Y-109195500D02*
X121068500Y-110387000D01*
X93525000Y-131795000D02*
X92445000Y-130715000D01*
X121655000Y-101751000D02*
X128005000Y-101751000D01*
X124957000Y-120801000D02*
X123344000Y-119188000D01*
X139181000Y-114021500D02*
X138381000Y-114021500D01*
X122925000Y-105990500D02*
X122925000Y-106578000D01*
X130545000Y-120801000D02*
X130951000Y-121207000D01*
X125465000Y-110387000D02*
X126151000Y-111073000D01*
X122925000Y-106578000D02*
X126151000Y-109804000D01*
X121576500Y-105990500D02*
X121147000Y-105561000D01*
X132132000Y-114388000D02*
X133451000Y-114388000D01*
X123751000Y-126579000D02*
X123751000Y-124088000D01*
X132498500Y-127659000D02*
X133593000Y-127659000D01*
X120263000Y-123727000D02*
X123179000Y-126643000D01*
X90159000Y-116359000D02*
X96965500Y-123165500D01*
X140880500Y-115896500D02*
X140959000Y-115975000D01*
X138381000Y-115896500D02*
X137672500Y-115188000D01*
X125351000Y-111684000D02*
X125351000Y-112688000D01*
X123179000Y-126643000D02*
X123687000Y-126643000D01*
X120992000Y-117588000D02*
X120263000Y-116859000D01*
X139181000Y-115896500D02*
X138381000Y-115896500D01*
X124737500Y-111070500D02*
X125351000Y-111684000D01*
X120263000Y-121588000D02*
X120263000Y-123727000D01*
X123687000Y-126643000D02*
X123751000Y-126579000D01*
X116164000Y-111070500D02*
X119877000Y-111070500D01*
X113781000Y-108687500D02*
X116164000Y-111070500D01*
X137672500Y-115188000D02*
X134455000Y-115188000D01*
X134455000Y-115188000D02*
X133451000Y-115188000D01*
X118685500Y-123165500D02*
X120263000Y-121588000D01*
X139181000Y-115896500D02*
X140880500Y-115896500D01*
X132498500Y-127659000D02*
X131751000Y-126911500D01*
X120263000Y-121588000D02*
X122051000Y-121588000D01*
X131751000Y-126911500D02*
X131751000Y-124088000D01*
X122051000Y-117588000D02*
X120992000Y-117588000D01*
X117591000Y-123165500D02*
X118685500Y-123165500D01*
X96965500Y-123165500D02*
X117591000Y-123165500D01*
X119877000Y-111070500D02*
X124737500Y-111070500D01*
X131727500Y-105903000D02*
X131815000Y-105990500D01*
X127751000Y-108609000D02*
X127751000Y-112688000D01*
X128470000Y-105903000D02*
X128470000Y-107636000D01*
X128470000Y-105903000D02*
X128470000Y-107890000D01*
X128470000Y-105903000D02*
X131727500Y-105903000D01*
X128470000Y-107890000D02*
X127751000Y-108609000D01*
X126182500Y-104115500D02*
X126270000Y-104203000D01*
X126270000Y-104203000D02*
X126081398Y-104203000D01*
X126951000Y-108472602D02*
X126951000Y-111684000D01*
X124957000Y-105327398D02*
X124957000Y-106478602D01*
X126081398Y-104203000D02*
X124957000Y-105327398D01*
X122925000Y-104115500D02*
X126182500Y-104115500D01*
X124957000Y-106478602D02*
X126951000Y-108472602D01*
X126951000Y-111684000D02*
X126951000Y-112688000D01*
X159628000Y-104350000D02*
X159628000Y-105054000D01*
X156648000Y-101370000D02*
X159628000Y-104350000D01*
X154040000Y-101370000D02*
X156648000Y-101370000D01*
X133451000Y-117588000D02*
X151098000Y-117588000D01*
X176934000Y-109117000D02*
X177570000Y-108481000D01*
X177570000Y-108481000D02*
X178424000Y-108481000D01*
X161245000Y-109117000D02*
X176934000Y-109117000D01*
X160482000Y-108354000D02*
X161245000Y-109117000D01*
X159628000Y-109058000D02*
X159628000Y-108354000D01*
X159628000Y-108354000D02*
X160482000Y-108354000D01*
X151098000Y-117588000D02*
X159628000Y-109058000D01*
X160136000Y-123781000D02*
X160136000Y-124485000D01*
X154000000Y-120460000D02*
X154040000Y-120420000D01*
X154040000Y-120420000D02*
X156775000Y-120420000D01*
X154000000Y-121000000D02*
X154000000Y-120460000D01*
X156775000Y-120420000D02*
X160136000Y-123781000D01*
X134304000Y-119988000D02*
X134501999Y-120185999D01*
X177407099Y-127820901D02*
X177697000Y-127531000D01*
X139232677Y-120185999D02*
X147535678Y-128489000D01*
X159986000Y-127785000D02*
X160136000Y-127785000D01*
X160990000Y-127785000D02*
X161025901Y-127820901D01*
X159282000Y-128489000D02*
X159986000Y-127785000D01*
X147535678Y-128489000D02*
X159282000Y-128489000D01*
X177697000Y-127531000D02*
X178551000Y-127531000D01*
X134501999Y-120185999D02*
X139232677Y-120185999D01*
X161025901Y-127820901D02*
X177407099Y-127820901D01*
X160136000Y-127785000D02*
X160990000Y-127785000D01*
X133451000Y-119988000D02*
X134304000Y-119988000D01*
X178424000Y-102640000D02*
X178424000Y-105181000D01*
X177154000Y-101370000D02*
X178424000Y-102640000D01*
X173090000Y-101370000D02*
X177154000Y-101370000D01*
X177154000Y-120420000D02*
X178551000Y-121817000D01*
X178551000Y-121817000D02*
X178551000Y-124231000D01*
X173090000Y-120420000D02*
X177154000Y-120420000D01*
X90159000Y-113559000D02*
X90159000Y-110352000D01*
X90159000Y-110352000D02*
X96433000Y-104078000D01*
X96433000Y-104078000D02*
X96433000Y-103203000D01*
X133451000Y-119188000D02*
X139600000Y-119188000D01*
X139600000Y-119188000D02*
X143372000Y-122960000D01*
X143372000Y-122960000D02*
X147690000Y-122960000D01*
X165126778Y-122960000D02*
X166740000Y-122960000D01*
X160554778Y-118388000D02*
X165126778Y-122960000D01*
X133451000Y-118388000D02*
X160554778Y-118388000D01*
X97233000Y-104582000D02*
X97450000Y-104799000D01*
X97450000Y-106476500D02*
X95239000Y-108687500D01*
X97233000Y-103203000D02*
X97233000Y-104582000D01*
X97450000Y-104799000D02*
X97450000Y-106476500D01*
X97017000Y-116483000D02*
X101322000Y-120788000D01*
X95239000Y-111657000D02*
X97017000Y-113435000D01*
X95239000Y-110562500D02*
X95239000Y-111657000D01*
X101322000Y-120788000D02*
X122051000Y-120788000D01*
X97017000Y-113435000D02*
X97017000Y-116483000D01*
X98033000Y-103203000D02*
X98033000Y-104670010D01*
X97904010Y-106526510D02*
X100065000Y-108687500D01*
X97904010Y-104799000D02*
X97904010Y-106526510D01*
X98033000Y-104670010D02*
X97904010Y-104799000D01*
X121960000Y-119988000D02*
X122051000Y-119988000D01*
X121909000Y-120039000D02*
X121960000Y-119988000D01*
X98033000Y-113435000D02*
X98033000Y-116483000D01*
X100065000Y-111403000D02*
X98033000Y-113435000D01*
X98033000Y-116483000D02*
X101589000Y-120039000D01*
X101589000Y-120039000D02*
X121909000Y-120039000D01*
X100065000Y-110562500D02*
X100065000Y-111403000D01*
X122914398Y-111911000D02*
X123214399Y-111610999D01*
X104383000Y-128167000D02*
X100951000Y-128167000D01*
X113781000Y-110562500D02*
X111065500Y-110562500D01*
X123214399Y-111610999D02*
X124477999Y-111610999D01*
X100951000Y-128167000D02*
X100879000Y-128095000D01*
X124477999Y-111610999D02*
X124551000Y-111684000D01*
X124551000Y-111684000D02*
X124551000Y-112688000D01*
X113781000Y-110562500D02*
X115129500Y-111911000D01*
X115129500Y-111911000D02*
X122914398Y-111911000D01*
X138434500Y-122388000D02*
X133451000Y-122388000D01*
X139181000Y-121641500D02*
X138434500Y-122388000D01*
M02*
