G04 #@! TF.GenerationSoftware,KiCad,Pcbnew,8.0.4*
G04 #@! TF.CreationDate,2024-09-01T14:25:38-06:00*
G04 #@! TF.ProjectId,keyboard-pcb-mk1,6b657962-6f61-4726-942d-7063622d6d6b,rev?*
G04 #@! TF.SameCoordinates,Original*
G04 #@! TF.FileFunction,Paste,Bot*
G04 #@! TF.FilePolarity,Positive*
%FSLAX46Y46*%
G04 Gerber Fmt 4.6, Leading zero omitted, Abs format (unit mm)*
G04 Created by KiCad (PCBNEW 8.0.4) date 2024-09-01 14:25:38*
%MOMM*%
%LPD*%
G01*
G04 APERTURE LIST*
G04 Aperture macros list*
%AMRoundRect*
0 Rectangle with rounded corners*
0 $1 Rounding radius*
0 $2 $3 $4 $5 $6 $7 $8 $9 X,Y pos of 4 corners*
0 Add a 4 corners polygon primitive as box body*
4,1,4,$2,$3,$4,$5,$6,$7,$8,$9,$2,$3,0*
0 Add four circle primitives for the rounded corners*
1,1,$1+$1,$2,$3*
1,1,$1+$1,$4,$5*
1,1,$1+$1,$6,$7*
1,1,$1+$1,$8,$9*
0 Add four rect primitives between the rounded corners*
20,1,$1+$1,$2,$3,$4,$5,0*
20,1,$1+$1,$4,$5,$6,$7,0*
20,1,$1+$1,$6,$7,$8,$9,0*
20,1,$1+$1,$8,$9,$2,$3,0*%
G04 Aperture macros list end*
%ADD10RoundRect,0.243750X0.243750X0.456250X-0.243750X0.456250X-0.243750X-0.456250X0.243750X-0.456250X0*%
%ADD11RoundRect,0.243750X0.456250X-0.243750X0.456250X0.243750X-0.456250X0.243750X-0.456250X-0.243750X0*%
%ADD12RoundRect,0.243750X-0.456250X0.243750X-0.456250X-0.243750X0.456250X-0.243750X0.456250X0.243750X0*%
%ADD13R,1.200000X0.900000*%
%ADD14R,1.500000X0.550000*%
%ADD15R,0.550000X1.500000*%
%ADD16R,1.400000X1.200000*%
%ADD17R,0.500000X2.250000*%
%ADD18R,1.800000X1.100000*%
%ADD19RoundRect,0.250000X0.625000X-0.375000X0.625000X0.375000X-0.625000X0.375000X-0.625000X-0.375000X0*%
G04 APERTURE END LIST*
D10*
X132498500Y-127659000D03*
X130623500Y-127659000D03*
D11*
X119877000Y-111070500D03*
X119877000Y-109195500D03*
X139181000Y-115896500D03*
X139181000Y-114021500D03*
D12*
X131815000Y-104115500D03*
X131815000Y-105990500D03*
D11*
X122925000Y-105990500D03*
X122925000Y-104115500D03*
D12*
X116448000Y-116942500D03*
X116448000Y-118817500D03*
D13*
X178424000Y-108481000D03*
X178424000Y-105181000D03*
X178551000Y-127531000D03*
X178551000Y-124231000D03*
D11*
X139181000Y-123516500D03*
X139181000Y-121641500D03*
D14*
X122051000Y-122388000D03*
X122051000Y-121588000D03*
X122051000Y-120788000D03*
X122051000Y-119988000D03*
X122051000Y-119188000D03*
X122051000Y-118388000D03*
X122051000Y-117588000D03*
X122051000Y-116788000D03*
X122051000Y-115988000D03*
X122051000Y-115188000D03*
X122051000Y-114388000D03*
D15*
X123751000Y-112688000D03*
X124551000Y-112688000D03*
X125351000Y-112688000D03*
X126151000Y-112688000D03*
X126951000Y-112688000D03*
X127751000Y-112688000D03*
X128551000Y-112688000D03*
X129351000Y-112688000D03*
X130151000Y-112688000D03*
X130951000Y-112688000D03*
X131751000Y-112688000D03*
D14*
X133451000Y-114388000D03*
X133451000Y-115188000D03*
X133451000Y-115988000D03*
X133451000Y-116788000D03*
X133451000Y-117588000D03*
X133451000Y-118388000D03*
X133451000Y-119188000D03*
X133451000Y-119988000D03*
X133451000Y-120788000D03*
X133451000Y-121588000D03*
X133451000Y-122388000D03*
D15*
X131751000Y-124088000D03*
X130951000Y-124088000D03*
X130151000Y-124088000D03*
X129351000Y-124088000D03*
X128551000Y-124088000D03*
X127751000Y-124088000D03*
X126951000Y-124088000D03*
X126151000Y-124088000D03*
X125351000Y-124088000D03*
X124551000Y-124088000D03*
X123751000Y-124088000D03*
D16*
X128470000Y-105903000D03*
X126270000Y-105903000D03*
X126270000Y-104203000D03*
X128470000Y-104203000D03*
D11*
X100065000Y-110562500D03*
X100065000Y-108687500D03*
D17*
X99633000Y-103203000D03*
X98833000Y-103203000D03*
X98033000Y-103203000D03*
X97233000Y-103203000D03*
X96433000Y-103203000D03*
D11*
X113781000Y-110562500D03*
X113781000Y-108687500D03*
D18*
X94679000Y-131795000D03*
X100879000Y-128095000D03*
X94679000Y-128095000D03*
X100879000Y-131795000D03*
D11*
X95239000Y-110562500D03*
X95239000Y-108687500D03*
D12*
X117591000Y-123165500D03*
X117591000Y-125040500D03*
D19*
X90159000Y-116359000D03*
X90159000Y-113559000D03*
D13*
X160136000Y-127785000D03*
X160136000Y-124485000D03*
X159628000Y-108354000D03*
X159628000Y-105054000D03*
M02*
