G04 #@! TF.GenerationSoftware,KiCad,Pcbnew,8.0.4*
G04 #@! TF.CreationDate,2024-09-01T14:25:38-06:00*
G04 #@! TF.ProjectId,keyboard-pcb-mk1,6b657962-6f61-4726-942d-7063622d6d6b,rev?*
G04 #@! TF.SameCoordinates,Original*
G04 #@! TF.FileFunction,Legend,Top*
G04 #@! TF.FilePolarity,Positive*
%FSLAX46Y46*%
G04 Gerber Fmt 4.6, Leading zero omitted, Abs format (unit mm)*
G04 Created by KiCad (PCBNEW 8.0.4) date 2024-09-01 14:25:38*
%MOMM*%
%LPD*%
G01*
G04 APERTURE LIST*
%ADD10C,0.150000*%
%ADD11C,1.852000*%
%ADD12C,4.089800*%
%ADD13O,1.802000X2.802000*%
G04 APERTURE END LIST*
D10*
X106527094Y-130161819D02*
X107098522Y-130161819D01*
X106812808Y-131161819D02*
X106812808Y-130161819D01*
X107431856Y-131161819D02*
X107431856Y-130161819D01*
X107860427Y-131161819D02*
X107860427Y-130638009D01*
X107860427Y-130638009D02*
X107812808Y-130542771D01*
X107812808Y-130542771D02*
X107717570Y-130495152D01*
X107717570Y-130495152D02*
X107574713Y-130495152D01*
X107574713Y-130495152D02*
X107479475Y-130542771D01*
X107479475Y-130542771D02*
X107431856Y-130590390D01*
X108717570Y-131114200D02*
X108622332Y-131161819D01*
X108622332Y-131161819D02*
X108431856Y-131161819D01*
X108431856Y-131161819D02*
X108336618Y-131114200D01*
X108336618Y-131114200D02*
X108288999Y-131018961D01*
X108288999Y-131018961D02*
X108288999Y-130638009D01*
X108288999Y-130638009D02*
X108336618Y-130542771D01*
X108336618Y-130542771D02*
X108431856Y-130495152D01*
X108431856Y-130495152D02*
X108622332Y-130495152D01*
X108622332Y-130495152D02*
X108717570Y-130542771D01*
X108717570Y-130542771D02*
X108765189Y-130638009D01*
X108765189Y-130638009D02*
X108765189Y-130733247D01*
X108765189Y-130733247D02*
X108288999Y-130828485D01*
X109908047Y-131114200D02*
X110003285Y-131161819D01*
X110003285Y-131161819D02*
X110193761Y-131161819D01*
X110193761Y-131161819D02*
X110288999Y-131114200D01*
X110288999Y-131114200D02*
X110336618Y-131018961D01*
X110336618Y-131018961D02*
X110336618Y-130971342D01*
X110336618Y-130971342D02*
X110288999Y-130876104D01*
X110288999Y-130876104D02*
X110193761Y-130828485D01*
X110193761Y-130828485D02*
X110050904Y-130828485D01*
X110050904Y-130828485D02*
X109955666Y-130780866D01*
X109955666Y-130780866D02*
X109908047Y-130685628D01*
X109908047Y-130685628D02*
X109908047Y-130638009D01*
X109908047Y-130638009D02*
X109955666Y-130542771D01*
X109955666Y-130542771D02*
X110050904Y-130495152D01*
X110050904Y-130495152D02*
X110193761Y-130495152D01*
X110193761Y-130495152D02*
X110288999Y-130542771D01*
X110908047Y-131161819D02*
X110812809Y-131114200D01*
X110812809Y-131114200D02*
X110765190Y-131066580D01*
X110765190Y-131066580D02*
X110717571Y-130971342D01*
X110717571Y-130971342D02*
X110717571Y-130685628D01*
X110717571Y-130685628D02*
X110765190Y-130590390D01*
X110765190Y-130590390D02*
X110812809Y-130542771D01*
X110812809Y-130542771D02*
X110908047Y-130495152D01*
X110908047Y-130495152D02*
X111050904Y-130495152D01*
X111050904Y-130495152D02*
X111146142Y-130542771D01*
X111146142Y-130542771D02*
X111193761Y-130590390D01*
X111193761Y-130590390D02*
X111241380Y-130685628D01*
X111241380Y-130685628D02*
X111241380Y-130971342D01*
X111241380Y-130971342D02*
X111193761Y-131066580D01*
X111193761Y-131066580D02*
X111146142Y-131114200D01*
X111146142Y-131114200D02*
X111050904Y-131161819D01*
X111050904Y-131161819D02*
X110908047Y-131161819D01*
X111812809Y-131161819D02*
X111717571Y-131114200D01*
X111717571Y-131114200D02*
X111669952Y-131018961D01*
X111669952Y-131018961D02*
X111669952Y-130161819D01*
X112193762Y-131161819D02*
X112193762Y-130161819D01*
X112289000Y-130780866D02*
X112574714Y-131161819D01*
X112574714Y-130495152D02*
X112193762Y-130876104D01*
X112955667Y-131114200D02*
X113050905Y-131161819D01*
X113050905Y-131161819D02*
X113241381Y-131161819D01*
X113241381Y-131161819D02*
X113336619Y-131114200D01*
X113336619Y-131114200D02*
X113384238Y-131018961D01*
X113384238Y-131018961D02*
X113384238Y-130971342D01*
X113384238Y-130971342D02*
X113336619Y-130876104D01*
X113336619Y-130876104D02*
X113241381Y-130828485D01*
X113241381Y-130828485D02*
X113098524Y-130828485D01*
X113098524Y-130828485D02*
X113003286Y-130780866D01*
X113003286Y-130780866D02*
X112955667Y-130685628D01*
X112955667Y-130685628D02*
X112955667Y-130638009D01*
X112955667Y-130638009D02*
X113003286Y-130542771D01*
X113003286Y-130542771D02*
X113098524Y-130495152D01*
X113098524Y-130495152D02*
X113241381Y-130495152D01*
X113241381Y-130495152D02*
X113336619Y-130542771D01*
X113812810Y-131161819D02*
X113812810Y-130495152D01*
X113812810Y-130161819D02*
X113765191Y-130209438D01*
X113765191Y-130209438D02*
X113812810Y-130257057D01*
X113812810Y-130257057D02*
X113860429Y-130209438D01*
X113860429Y-130209438D02*
X113812810Y-130161819D01*
X113812810Y-130161819D02*
X113812810Y-130257057D01*
X114289000Y-130495152D02*
X114289000Y-131161819D01*
X114289000Y-130590390D02*
X114336619Y-130542771D01*
X114336619Y-130542771D02*
X114431857Y-130495152D01*
X114431857Y-130495152D02*
X114574714Y-130495152D01*
X114574714Y-130495152D02*
X114669952Y-130542771D01*
X114669952Y-130542771D02*
X114717571Y-130638009D01*
X114717571Y-130638009D02*
X114717571Y-131161819D01*
X115622333Y-130495152D02*
X115622333Y-131304676D01*
X115622333Y-131304676D02*
X115574714Y-131399914D01*
X115574714Y-131399914D02*
X115527095Y-131447533D01*
X115527095Y-131447533D02*
X115431857Y-131495152D01*
X115431857Y-131495152D02*
X115289000Y-131495152D01*
X115289000Y-131495152D02*
X115193762Y-131447533D01*
X115622333Y-131114200D02*
X115527095Y-131161819D01*
X115527095Y-131161819D02*
X115336619Y-131161819D01*
X115336619Y-131161819D02*
X115241381Y-131114200D01*
X115241381Y-131114200D02*
X115193762Y-131066580D01*
X115193762Y-131066580D02*
X115146143Y-130971342D01*
X115146143Y-130971342D02*
X115146143Y-130685628D01*
X115146143Y-130685628D02*
X115193762Y-130590390D01*
X115193762Y-130590390D02*
X115241381Y-130542771D01*
X115241381Y-130542771D02*
X115336619Y-130495152D01*
X115336619Y-130495152D02*
X115527095Y-130495152D01*
X115527095Y-130495152D02*
X115622333Y-130542771D01*
X115955667Y-130495152D02*
X116336619Y-130495152D01*
X116098524Y-130161819D02*
X116098524Y-131018961D01*
X116098524Y-131018961D02*
X116146143Y-131114200D01*
X116146143Y-131114200D02*
X116241381Y-131161819D01*
X116241381Y-131161819D02*
X116336619Y-131161819D01*
X117431858Y-131161819D02*
X117431858Y-130495152D01*
X117431858Y-130161819D02*
X117384239Y-130209438D01*
X117384239Y-130209438D02*
X117431858Y-130257057D01*
X117431858Y-130257057D02*
X117479477Y-130209438D01*
X117479477Y-130209438D02*
X117431858Y-130161819D01*
X117431858Y-130161819D02*
X117431858Y-130257057D01*
X117860429Y-131114200D02*
X117955667Y-131161819D01*
X117955667Y-131161819D02*
X118146143Y-131161819D01*
X118146143Y-131161819D02*
X118241381Y-131114200D01*
X118241381Y-131114200D02*
X118289000Y-131018961D01*
X118289000Y-131018961D02*
X118289000Y-130971342D01*
X118289000Y-130971342D02*
X118241381Y-130876104D01*
X118241381Y-130876104D02*
X118146143Y-130828485D01*
X118146143Y-130828485D02*
X118003286Y-130828485D01*
X118003286Y-130828485D02*
X117908048Y-130780866D01*
X117908048Y-130780866D02*
X117860429Y-130685628D01*
X117860429Y-130685628D02*
X117860429Y-130638009D01*
X117860429Y-130638009D02*
X117908048Y-130542771D01*
X117908048Y-130542771D02*
X118003286Y-130495152D01*
X118003286Y-130495152D02*
X118146143Y-130495152D01*
X118146143Y-130495152D02*
X118241381Y-130542771D01*
X119479477Y-131161819D02*
X119479477Y-130495152D01*
X119479477Y-130685628D02*
X119527096Y-130590390D01*
X119527096Y-130590390D02*
X119574715Y-130542771D01*
X119574715Y-130542771D02*
X119669953Y-130495152D01*
X119669953Y-130495152D02*
X119765191Y-130495152D01*
X120479477Y-131114200D02*
X120384239Y-131161819D01*
X120384239Y-131161819D02*
X120193763Y-131161819D01*
X120193763Y-131161819D02*
X120098525Y-131114200D01*
X120098525Y-131114200D02*
X120050906Y-131018961D01*
X120050906Y-131018961D02*
X120050906Y-130638009D01*
X120050906Y-130638009D02*
X120098525Y-130542771D01*
X120098525Y-130542771D02*
X120193763Y-130495152D01*
X120193763Y-130495152D02*
X120384239Y-130495152D01*
X120384239Y-130495152D02*
X120479477Y-130542771D01*
X120479477Y-130542771D02*
X120527096Y-130638009D01*
X120527096Y-130638009D02*
X120527096Y-130733247D01*
X120527096Y-130733247D02*
X120050906Y-130828485D01*
X121384239Y-131161819D02*
X121384239Y-130638009D01*
X121384239Y-130638009D02*
X121336620Y-130542771D01*
X121336620Y-130542771D02*
X121241382Y-130495152D01*
X121241382Y-130495152D02*
X121050906Y-130495152D01*
X121050906Y-130495152D02*
X120955668Y-130542771D01*
X121384239Y-131114200D02*
X121289001Y-131161819D01*
X121289001Y-131161819D02*
X121050906Y-131161819D01*
X121050906Y-131161819D02*
X120955668Y-131114200D01*
X120955668Y-131114200D02*
X120908049Y-131018961D01*
X120908049Y-131018961D02*
X120908049Y-130923723D01*
X120908049Y-130923723D02*
X120955668Y-130828485D01*
X120955668Y-130828485D02*
X121050906Y-130780866D01*
X121050906Y-130780866D02*
X121289001Y-130780866D01*
X121289001Y-130780866D02*
X121384239Y-130733247D01*
X122003287Y-131161819D02*
X121908049Y-131114200D01*
X121908049Y-131114200D02*
X121860430Y-131018961D01*
X121860430Y-131018961D02*
X121860430Y-130161819D01*
%LPC*%
D11*
X165470000Y-106450000D03*
D12*
X170550000Y-106450000D03*
D11*
X175630000Y-106450000D03*
X146420000Y-106450000D03*
D12*
X151500000Y-106450000D03*
D11*
X156580000Y-106450000D03*
X165470000Y-125500000D03*
D12*
X170550000Y-125500000D03*
D11*
X175630000Y-125500000D03*
X146420000Y-125500000D03*
D12*
X151500000Y-125500000D03*
D11*
X156580000Y-125500000D03*
D13*
X101683000Y-98703000D03*
X94383000Y-98703000D03*
X101683000Y-103203000D03*
X94383000Y-103203000D03*
%LPD*%
M02*
