G04 #@! TF.GenerationSoftware,KiCad,Pcbnew,8.0.4*
G04 #@! TF.CreationDate,2024-09-01T14:25:38-06:00*
G04 #@! TF.ProjectId,keyboard-pcb-mk1,6b657962-6f61-4726-942d-7063622d6d6b,rev?*
G04 #@! TF.SameCoordinates,Original*
G04 #@! TF.FileFunction,Legend,Bot*
G04 #@! TF.FilePolarity,Positive*
%FSLAX46Y46*%
G04 Gerber Fmt 4.6, Leading zero omitted, Abs format (unit mm)*
G04 Created by KiCad (PCBNEW 8.0.4) date 2024-09-01 14:25:38*
%MOMM*%
%LPD*%
G01*
G04 APERTURE LIST*
G04 Aperture macros list*
%AMRoundRect*
0 Rectangle with rounded corners*
0 $1 Rounding radius*
0 $2 $3 $4 $5 $6 $7 $8 $9 X,Y pos of 4 corners*
0 Add a 4 corners polygon primitive as box body*
4,1,4,$2,$3,$4,$5,$6,$7,$8,$9,$2,$3,0*
0 Add four circle primitives for the rounded corners*
1,1,$1+$1,$2,$3*
1,1,$1+$1,$4,$5*
1,1,$1+$1,$6,$7*
1,1,$1+$1,$8,$9*
0 Add four rect primitives between the rounded corners*
20,1,$1+$1,$2,$3,$4,$5,0*
20,1,$1+$1,$4,$5,$6,$7,0*
20,1,$1+$1,$6,$7,$8,$9,0*
20,1,$1+$1,$8,$9,$2,$3,0*%
%AMHorizOval*
0 Thick line with rounded ends*
0 $1 width*
0 $2 $3 position (X,Y) of the first rounded end (center of the circle)*
0 $4 $5 position (X,Y) of the second rounded end (center of the circle)*
0 Add line between two ends*
20,1,$1,$2,$3,$4,$5,0*
0 Add two circle primitives to create the rounded ends*
1,1,$1,$2,$3*
1,1,$1,$4,$5*%
G04 Aperture macros list end*
%ADD10C,0.150000*%
%ADD11C,0.120000*%
%ADD12C,1.852000*%
%ADD13C,4.089800*%
%ADD14HorizOval,2.352000X0.655001X0.730000X-0.655001X-0.730000X0*%
%ADD15C,2.352000*%
%ADD16HorizOval,2.352000X0.020000X0.290000X-0.020000X-0.290000X0*%
%ADD17C,2.007000*%
%ADD18RoundRect,0.051000X-0.952500X-0.952500X0.952500X-0.952500X0.952500X0.952500X-0.952500X0.952500X0*%
%ADD19RoundRect,0.269250X0.269250X0.481750X-0.269250X0.481750X-0.269250X-0.481750X0.269250X-0.481750X0*%
%ADD20RoundRect,0.269250X0.481750X-0.269250X0.481750X0.269250X-0.481750X0.269250X-0.481750X-0.269250X0*%
%ADD21RoundRect,0.269250X-0.481750X0.269250X-0.481750X-0.269250X0.481750X-0.269250X0.481750X0.269250X0*%
%ADD22RoundRect,0.051000X0.600000X-0.450000X0.600000X0.450000X-0.600000X0.450000X-0.600000X-0.450000X0*%
%ADD23RoundRect,0.051000X-0.750000X-0.275000X0.750000X-0.275000X0.750000X0.275000X-0.750000X0.275000X0*%
%ADD24RoundRect,0.051000X-0.275000X0.750000X-0.275000X-0.750000X0.275000X-0.750000X0.275000X0.750000X0*%
%ADD25RoundRect,0.051000X0.700000X0.600000X-0.700000X0.600000X-0.700000X-0.600000X0.700000X-0.600000X0*%
%ADD26RoundRect,0.051000X-0.250000X1.125000X-0.250000X-1.125000X0.250000X-1.125000X0.250000X1.125000X0*%
%ADD27O,1.802000X2.802000*%
%ADD28RoundRect,0.051000X0.900000X0.550000X-0.900000X0.550000X-0.900000X-0.550000X0.900000X-0.550000X0*%
%ADD29RoundRect,0.270400X0.655600X-0.405600X0.655600X0.405600X-0.655600X0.405600X-0.655600X-0.405600X0*%
G04 APERTURE END LIST*
D10*
X131727666Y-126368580D02*
X131775285Y-126416200D01*
X131775285Y-126416200D02*
X131918142Y-126463819D01*
X131918142Y-126463819D02*
X132013380Y-126463819D01*
X132013380Y-126463819D02*
X132156237Y-126416200D01*
X132156237Y-126416200D02*
X132251475Y-126320961D01*
X132251475Y-126320961D02*
X132299094Y-126225723D01*
X132299094Y-126225723D02*
X132346713Y-126035247D01*
X132346713Y-126035247D02*
X132346713Y-125892390D01*
X132346713Y-125892390D02*
X132299094Y-125701914D01*
X132299094Y-125701914D02*
X132251475Y-125606676D01*
X132251475Y-125606676D02*
X132156237Y-125511438D01*
X132156237Y-125511438D02*
X132013380Y-125463819D01*
X132013380Y-125463819D02*
X131918142Y-125463819D01*
X131918142Y-125463819D02*
X131775285Y-125511438D01*
X131775285Y-125511438D02*
X131727666Y-125559057D01*
X130775285Y-126463819D02*
X131346713Y-126463819D01*
X131060999Y-126463819D02*
X131060999Y-125463819D01*
X131060999Y-125463819D02*
X131156237Y-125606676D01*
X131156237Y-125606676D02*
X131251475Y-125701914D01*
X131251475Y-125701914D02*
X131346713Y-125749533D01*
X121886580Y-109966333D02*
X121934200Y-109918714D01*
X121934200Y-109918714D02*
X121981819Y-109775857D01*
X121981819Y-109775857D02*
X121981819Y-109680619D01*
X121981819Y-109680619D02*
X121934200Y-109537762D01*
X121934200Y-109537762D02*
X121838961Y-109442524D01*
X121838961Y-109442524D02*
X121743723Y-109394905D01*
X121743723Y-109394905D02*
X121553247Y-109347286D01*
X121553247Y-109347286D02*
X121410390Y-109347286D01*
X121410390Y-109347286D02*
X121219914Y-109394905D01*
X121219914Y-109394905D02*
X121124676Y-109442524D01*
X121124676Y-109442524D02*
X121029438Y-109537762D01*
X121029438Y-109537762D02*
X120981819Y-109680619D01*
X120981819Y-109680619D02*
X120981819Y-109775857D01*
X120981819Y-109775857D02*
X121029438Y-109918714D01*
X121029438Y-109918714D02*
X121077057Y-109966333D01*
X121077057Y-110347286D02*
X121029438Y-110394905D01*
X121029438Y-110394905D02*
X120981819Y-110490143D01*
X120981819Y-110490143D02*
X120981819Y-110728238D01*
X120981819Y-110728238D02*
X121029438Y-110823476D01*
X121029438Y-110823476D02*
X121077057Y-110871095D01*
X121077057Y-110871095D02*
X121172295Y-110918714D01*
X121172295Y-110918714D02*
X121267533Y-110918714D01*
X121267533Y-110918714D02*
X121410390Y-110871095D01*
X121410390Y-110871095D02*
X121981819Y-110299667D01*
X121981819Y-110299667D02*
X121981819Y-110918714D01*
X141190580Y-114792333D02*
X141238200Y-114744714D01*
X141238200Y-114744714D02*
X141285819Y-114601857D01*
X141285819Y-114601857D02*
X141285819Y-114506619D01*
X141285819Y-114506619D02*
X141238200Y-114363762D01*
X141238200Y-114363762D02*
X141142961Y-114268524D01*
X141142961Y-114268524D02*
X141047723Y-114220905D01*
X141047723Y-114220905D02*
X140857247Y-114173286D01*
X140857247Y-114173286D02*
X140714390Y-114173286D01*
X140714390Y-114173286D02*
X140523914Y-114220905D01*
X140523914Y-114220905D02*
X140428676Y-114268524D01*
X140428676Y-114268524D02*
X140333438Y-114363762D01*
X140333438Y-114363762D02*
X140285819Y-114506619D01*
X140285819Y-114506619D02*
X140285819Y-114601857D01*
X140285819Y-114601857D02*
X140333438Y-114744714D01*
X140333438Y-114744714D02*
X140381057Y-114792333D01*
X140285819Y-115125667D02*
X140285819Y-115744714D01*
X140285819Y-115744714D02*
X140666771Y-115411381D01*
X140666771Y-115411381D02*
X140666771Y-115554238D01*
X140666771Y-115554238D02*
X140714390Y-115649476D01*
X140714390Y-115649476D02*
X140762009Y-115697095D01*
X140762009Y-115697095D02*
X140857247Y-115744714D01*
X140857247Y-115744714D02*
X141095342Y-115744714D01*
X141095342Y-115744714D02*
X141190580Y-115697095D01*
X141190580Y-115697095D02*
X141238200Y-115649476D01*
X141238200Y-115649476D02*
X141285819Y-115554238D01*
X141285819Y-115554238D02*
X141285819Y-115268524D01*
X141285819Y-115268524D02*
X141238200Y-115173286D01*
X141238200Y-115173286D02*
X141190580Y-115125667D01*
X130524580Y-104886333D02*
X130572200Y-104838714D01*
X130572200Y-104838714D02*
X130619819Y-104695857D01*
X130619819Y-104695857D02*
X130619819Y-104600619D01*
X130619819Y-104600619D02*
X130572200Y-104457762D01*
X130572200Y-104457762D02*
X130476961Y-104362524D01*
X130476961Y-104362524D02*
X130381723Y-104314905D01*
X130381723Y-104314905D02*
X130191247Y-104267286D01*
X130191247Y-104267286D02*
X130048390Y-104267286D01*
X130048390Y-104267286D02*
X129857914Y-104314905D01*
X129857914Y-104314905D02*
X129762676Y-104362524D01*
X129762676Y-104362524D02*
X129667438Y-104457762D01*
X129667438Y-104457762D02*
X129619819Y-104600619D01*
X129619819Y-104600619D02*
X129619819Y-104695857D01*
X129619819Y-104695857D02*
X129667438Y-104838714D01*
X129667438Y-104838714D02*
X129715057Y-104886333D01*
X129619819Y-105791095D02*
X129619819Y-105314905D01*
X129619819Y-105314905D02*
X130096009Y-105267286D01*
X130096009Y-105267286D02*
X130048390Y-105314905D01*
X130048390Y-105314905D02*
X130000771Y-105410143D01*
X130000771Y-105410143D02*
X130000771Y-105648238D01*
X130000771Y-105648238D02*
X130048390Y-105743476D01*
X130048390Y-105743476D02*
X130096009Y-105791095D01*
X130096009Y-105791095D02*
X130191247Y-105838714D01*
X130191247Y-105838714D02*
X130429342Y-105838714D01*
X130429342Y-105838714D02*
X130524580Y-105791095D01*
X130524580Y-105791095D02*
X130572200Y-105743476D01*
X130572200Y-105743476D02*
X130619819Y-105648238D01*
X130619819Y-105648238D02*
X130619819Y-105410143D01*
X130619819Y-105410143D02*
X130572200Y-105314905D01*
X130572200Y-105314905D02*
X130524580Y-105267286D01*
X124934580Y-104886333D02*
X124982200Y-104838714D01*
X124982200Y-104838714D02*
X125029819Y-104695857D01*
X125029819Y-104695857D02*
X125029819Y-104600619D01*
X125029819Y-104600619D02*
X124982200Y-104457762D01*
X124982200Y-104457762D02*
X124886961Y-104362524D01*
X124886961Y-104362524D02*
X124791723Y-104314905D01*
X124791723Y-104314905D02*
X124601247Y-104267286D01*
X124601247Y-104267286D02*
X124458390Y-104267286D01*
X124458390Y-104267286D02*
X124267914Y-104314905D01*
X124267914Y-104314905D02*
X124172676Y-104362524D01*
X124172676Y-104362524D02*
X124077438Y-104457762D01*
X124077438Y-104457762D02*
X124029819Y-104600619D01*
X124029819Y-104600619D02*
X124029819Y-104695857D01*
X124029819Y-104695857D02*
X124077438Y-104838714D01*
X124077438Y-104838714D02*
X124125057Y-104886333D01*
X124029819Y-105743476D02*
X124029819Y-105553000D01*
X124029819Y-105553000D02*
X124077438Y-105457762D01*
X124077438Y-105457762D02*
X124125057Y-105410143D01*
X124125057Y-105410143D02*
X124267914Y-105314905D01*
X124267914Y-105314905D02*
X124458390Y-105267286D01*
X124458390Y-105267286D02*
X124839342Y-105267286D01*
X124839342Y-105267286D02*
X124934580Y-105314905D01*
X124934580Y-105314905D02*
X124982200Y-105362524D01*
X124982200Y-105362524D02*
X125029819Y-105457762D01*
X125029819Y-105457762D02*
X125029819Y-105648238D01*
X125029819Y-105648238D02*
X124982200Y-105743476D01*
X124982200Y-105743476D02*
X124934580Y-105791095D01*
X124934580Y-105791095D02*
X124839342Y-105838714D01*
X124839342Y-105838714D02*
X124601247Y-105838714D01*
X124601247Y-105838714D02*
X124506009Y-105791095D01*
X124506009Y-105791095D02*
X124458390Y-105743476D01*
X124458390Y-105743476D02*
X124410771Y-105648238D01*
X124410771Y-105648238D02*
X124410771Y-105457762D01*
X124410771Y-105457762D02*
X124458390Y-105362524D01*
X124458390Y-105362524D02*
X124506009Y-105314905D01*
X124506009Y-105314905D02*
X124601247Y-105267286D01*
X115157580Y-117713333D02*
X115205200Y-117665714D01*
X115205200Y-117665714D02*
X115252819Y-117522857D01*
X115252819Y-117522857D02*
X115252819Y-117427619D01*
X115252819Y-117427619D02*
X115205200Y-117284762D01*
X115205200Y-117284762D02*
X115109961Y-117189524D01*
X115109961Y-117189524D02*
X115014723Y-117141905D01*
X115014723Y-117141905D02*
X114824247Y-117094286D01*
X114824247Y-117094286D02*
X114681390Y-117094286D01*
X114681390Y-117094286D02*
X114490914Y-117141905D01*
X114490914Y-117141905D02*
X114395676Y-117189524D01*
X114395676Y-117189524D02*
X114300438Y-117284762D01*
X114300438Y-117284762D02*
X114252819Y-117427619D01*
X114252819Y-117427619D02*
X114252819Y-117522857D01*
X114252819Y-117522857D02*
X114300438Y-117665714D01*
X114300438Y-117665714D02*
X114348057Y-117713333D01*
X114252819Y-118046667D02*
X114252819Y-118713333D01*
X114252819Y-118713333D02*
X115252819Y-118284762D01*
X180878819Y-106092905D02*
X179878819Y-106092905D01*
X179878819Y-106092905D02*
X179878819Y-106331000D01*
X179878819Y-106331000D02*
X179926438Y-106473857D01*
X179926438Y-106473857D02*
X180021676Y-106569095D01*
X180021676Y-106569095D02*
X180116914Y-106616714D01*
X180116914Y-106616714D02*
X180307390Y-106664333D01*
X180307390Y-106664333D02*
X180450247Y-106664333D01*
X180450247Y-106664333D02*
X180640723Y-106616714D01*
X180640723Y-106616714D02*
X180735961Y-106569095D01*
X180735961Y-106569095D02*
X180831200Y-106473857D01*
X180831200Y-106473857D02*
X180878819Y-106331000D01*
X180878819Y-106331000D02*
X180878819Y-106092905D01*
X179878819Y-106997667D02*
X179878819Y-107616714D01*
X179878819Y-107616714D02*
X180259771Y-107283381D01*
X180259771Y-107283381D02*
X180259771Y-107426238D01*
X180259771Y-107426238D02*
X180307390Y-107521476D01*
X180307390Y-107521476D02*
X180355009Y-107569095D01*
X180355009Y-107569095D02*
X180450247Y-107616714D01*
X180450247Y-107616714D02*
X180688342Y-107616714D01*
X180688342Y-107616714D02*
X180783580Y-107569095D01*
X180783580Y-107569095D02*
X180831200Y-107521476D01*
X180831200Y-107521476D02*
X180878819Y-107426238D01*
X180878819Y-107426238D02*
X180878819Y-107140524D01*
X180878819Y-107140524D02*
X180831200Y-107045286D01*
X180831200Y-107045286D02*
X180783580Y-106997667D01*
X181005819Y-125142905D02*
X180005819Y-125142905D01*
X180005819Y-125142905D02*
X180005819Y-125381000D01*
X180005819Y-125381000D02*
X180053438Y-125523857D01*
X180053438Y-125523857D02*
X180148676Y-125619095D01*
X180148676Y-125619095D02*
X180243914Y-125666714D01*
X180243914Y-125666714D02*
X180434390Y-125714333D01*
X180434390Y-125714333D02*
X180577247Y-125714333D01*
X180577247Y-125714333D02*
X180767723Y-125666714D01*
X180767723Y-125666714D02*
X180862961Y-125619095D01*
X180862961Y-125619095D02*
X180958200Y-125523857D01*
X180958200Y-125523857D02*
X181005819Y-125381000D01*
X181005819Y-125381000D02*
X181005819Y-125142905D01*
X180339152Y-126571476D02*
X181005819Y-126571476D01*
X179958200Y-126333381D02*
X180672485Y-126095286D01*
X180672485Y-126095286D02*
X180672485Y-126714333D01*
X141285819Y-122412333D02*
X140809628Y-122079000D01*
X141285819Y-121840905D02*
X140285819Y-121840905D01*
X140285819Y-121840905D02*
X140285819Y-122221857D01*
X140285819Y-122221857D02*
X140333438Y-122317095D01*
X140333438Y-122317095D02*
X140381057Y-122364714D01*
X140381057Y-122364714D02*
X140476295Y-122412333D01*
X140476295Y-122412333D02*
X140619152Y-122412333D01*
X140619152Y-122412333D02*
X140714390Y-122364714D01*
X140714390Y-122364714D02*
X140762009Y-122317095D01*
X140762009Y-122317095D02*
X140809628Y-122221857D01*
X140809628Y-122221857D02*
X140809628Y-121840905D01*
X140619152Y-123269476D02*
X141285819Y-123269476D01*
X140238200Y-123031381D02*
X140952485Y-122793286D01*
X140952485Y-122793286D02*
X140952485Y-123412333D01*
X128512904Y-125292819D02*
X128512904Y-126102342D01*
X128512904Y-126102342D02*
X128465285Y-126197580D01*
X128465285Y-126197580D02*
X128417666Y-126245200D01*
X128417666Y-126245200D02*
X128322428Y-126292819D01*
X128322428Y-126292819D02*
X128131952Y-126292819D01*
X128131952Y-126292819D02*
X128036714Y-126245200D01*
X128036714Y-126245200D02*
X127989095Y-126197580D01*
X127989095Y-126197580D02*
X127941476Y-126102342D01*
X127941476Y-126102342D02*
X127941476Y-125292819D01*
X126941476Y-126292819D02*
X127512904Y-126292819D01*
X127227190Y-126292819D02*
X127227190Y-125292819D01*
X127227190Y-125292819D02*
X127322428Y-125435676D01*
X127322428Y-125435676D02*
X127417666Y-125530914D01*
X127417666Y-125530914D02*
X127512904Y-125578533D01*
X127846190Y-102581628D02*
X127846190Y-103057819D01*
X128179523Y-102057819D02*
X127846190Y-102581628D01*
X127846190Y-102581628D02*
X127512857Y-102057819D01*
X126655714Y-103057819D02*
X127227142Y-103057819D01*
X126941428Y-103057819D02*
X126941428Y-102057819D01*
X126941428Y-102057819D02*
X127036666Y-102200676D01*
X127036666Y-102200676D02*
X127131904Y-102295914D01*
X127131904Y-102295914D02*
X127227142Y-102343533D01*
X102169819Y-109458333D02*
X101693628Y-109125000D01*
X102169819Y-108886905D02*
X101169819Y-108886905D01*
X101169819Y-108886905D02*
X101169819Y-109267857D01*
X101169819Y-109267857D02*
X101217438Y-109363095D01*
X101217438Y-109363095D02*
X101265057Y-109410714D01*
X101265057Y-109410714D02*
X101360295Y-109458333D01*
X101360295Y-109458333D02*
X101503152Y-109458333D01*
X101503152Y-109458333D02*
X101598390Y-109410714D01*
X101598390Y-109410714D02*
X101646009Y-109363095D01*
X101646009Y-109363095D02*
X101693628Y-109267857D01*
X101693628Y-109267857D02*
X101693628Y-108886905D01*
X101265057Y-109839286D02*
X101217438Y-109886905D01*
X101217438Y-109886905D02*
X101169819Y-109982143D01*
X101169819Y-109982143D02*
X101169819Y-110220238D01*
X101169819Y-110220238D02*
X101217438Y-110315476D01*
X101217438Y-110315476D02*
X101265057Y-110363095D01*
X101265057Y-110363095D02*
X101360295Y-110410714D01*
X101360295Y-110410714D02*
X101455533Y-110410714D01*
X101455533Y-110410714D02*
X101598390Y-110363095D01*
X101598390Y-110363095D02*
X102169819Y-109791667D01*
X102169819Y-109791667D02*
X102169819Y-110410714D01*
X99771094Y-100189819D02*
X99771094Y-100999342D01*
X99771094Y-100999342D02*
X99723475Y-101094580D01*
X99723475Y-101094580D02*
X99675856Y-101142200D01*
X99675856Y-101142200D02*
X99580618Y-101189819D01*
X99580618Y-101189819D02*
X99390142Y-101189819D01*
X99390142Y-101189819D02*
X99294904Y-101142200D01*
X99294904Y-101142200D02*
X99247285Y-101094580D01*
X99247285Y-101094580D02*
X99199666Y-100999342D01*
X99199666Y-100999342D02*
X99199666Y-100189819D01*
X98771094Y-101142200D02*
X98628237Y-101189819D01*
X98628237Y-101189819D02*
X98390142Y-101189819D01*
X98390142Y-101189819D02*
X98294904Y-101142200D01*
X98294904Y-101142200D02*
X98247285Y-101094580D01*
X98247285Y-101094580D02*
X98199666Y-100999342D01*
X98199666Y-100999342D02*
X98199666Y-100904104D01*
X98199666Y-100904104D02*
X98247285Y-100808866D01*
X98247285Y-100808866D02*
X98294904Y-100761247D01*
X98294904Y-100761247D02*
X98390142Y-100713628D01*
X98390142Y-100713628D02*
X98580618Y-100666009D01*
X98580618Y-100666009D02*
X98675856Y-100618390D01*
X98675856Y-100618390D02*
X98723475Y-100570771D01*
X98723475Y-100570771D02*
X98771094Y-100475533D01*
X98771094Y-100475533D02*
X98771094Y-100380295D01*
X98771094Y-100380295D02*
X98723475Y-100285057D01*
X98723475Y-100285057D02*
X98675856Y-100237438D01*
X98675856Y-100237438D02*
X98580618Y-100189819D01*
X98580618Y-100189819D02*
X98342523Y-100189819D01*
X98342523Y-100189819D02*
X98199666Y-100237438D01*
X97437761Y-100666009D02*
X97294904Y-100713628D01*
X97294904Y-100713628D02*
X97247285Y-100761247D01*
X97247285Y-100761247D02*
X97199666Y-100856485D01*
X97199666Y-100856485D02*
X97199666Y-100999342D01*
X97199666Y-100999342D02*
X97247285Y-101094580D01*
X97247285Y-101094580D02*
X97294904Y-101142200D01*
X97294904Y-101142200D02*
X97390142Y-101189819D01*
X97390142Y-101189819D02*
X97771094Y-101189819D01*
X97771094Y-101189819D02*
X97771094Y-100189819D01*
X97771094Y-100189819D02*
X97437761Y-100189819D01*
X97437761Y-100189819D02*
X97342523Y-100237438D01*
X97342523Y-100237438D02*
X97294904Y-100285057D01*
X97294904Y-100285057D02*
X97247285Y-100380295D01*
X97247285Y-100380295D02*
X97247285Y-100475533D01*
X97247285Y-100475533D02*
X97294904Y-100570771D01*
X97294904Y-100570771D02*
X97342523Y-100618390D01*
X97342523Y-100618390D02*
X97437761Y-100666009D01*
X97437761Y-100666009D02*
X97771094Y-100666009D01*
X96247285Y-101189819D02*
X96818713Y-101189819D01*
X96532999Y-101189819D02*
X96532999Y-100189819D01*
X96532999Y-100189819D02*
X96628237Y-100332676D01*
X96628237Y-100332676D02*
X96723475Y-100427914D01*
X96723475Y-100427914D02*
X96818713Y-100475533D01*
X115885819Y-109458333D02*
X115409628Y-109125000D01*
X115885819Y-108886905D02*
X114885819Y-108886905D01*
X114885819Y-108886905D02*
X114885819Y-109267857D01*
X114885819Y-109267857D02*
X114933438Y-109363095D01*
X114933438Y-109363095D02*
X114981057Y-109410714D01*
X114981057Y-109410714D02*
X115076295Y-109458333D01*
X115076295Y-109458333D02*
X115219152Y-109458333D01*
X115219152Y-109458333D02*
X115314390Y-109410714D01*
X115314390Y-109410714D02*
X115362009Y-109363095D01*
X115362009Y-109363095D02*
X115409628Y-109267857D01*
X115409628Y-109267857D02*
X115409628Y-108886905D01*
X114885819Y-109791667D02*
X114885819Y-110410714D01*
X114885819Y-110410714D02*
X115266771Y-110077381D01*
X115266771Y-110077381D02*
X115266771Y-110220238D01*
X115266771Y-110220238D02*
X115314390Y-110315476D01*
X115314390Y-110315476D02*
X115362009Y-110363095D01*
X115362009Y-110363095D02*
X115457247Y-110410714D01*
X115457247Y-110410714D02*
X115695342Y-110410714D01*
X115695342Y-110410714D02*
X115790580Y-110363095D01*
X115790580Y-110363095D02*
X115838200Y-110315476D01*
X115838200Y-110315476D02*
X115885819Y-110220238D01*
X115885819Y-110220238D02*
X115885819Y-109934524D01*
X115885819Y-109934524D02*
X115838200Y-109839286D01*
X115838200Y-109839286D02*
X115790580Y-109791667D01*
X99112332Y-134416200D02*
X98969475Y-134463819D01*
X98969475Y-134463819D02*
X98731380Y-134463819D01*
X98731380Y-134463819D02*
X98636142Y-134416200D01*
X98636142Y-134416200D02*
X98588523Y-134368580D01*
X98588523Y-134368580D02*
X98540904Y-134273342D01*
X98540904Y-134273342D02*
X98540904Y-134178104D01*
X98540904Y-134178104D02*
X98588523Y-134082866D01*
X98588523Y-134082866D02*
X98636142Y-134035247D01*
X98636142Y-134035247D02*
X98731380Y-133987628D01*
X98731380Y-133987628D02*
X98921856Y-133940009D01*
X98921856Y-133940009D02*
X99017094Y-133892390D01*
X99017094Y-133892390D02*
X99064713Y-133844771D01*
X99064713Y-133844771D02*
X99112332Y-133749533D01*
X99112332Y-133749533D02*
X99112332Y-133654295D01*
X99112332Y-133654295D02*
X99064713Y-133559057D01*
X99064713Y-133559057D02*
X99017094Y-133511438D01*
X99017094Y-133511438D02*
X98921856Y-133463819D01*
X98921856Y-133463819D02*
X98683761Y-133463819D01*
X98683761Y-133463819D02*
X98540904Y-133511438D01*
X98207570Y-133463819D02*
X97969475Y-134463819D01*
X97969475Y-134463819D02*
X97778999Y-133749533D01*
X97778999Y-133749533D02*
X97588523Y-134463819D01*
X97588523Y-134463819D02*
X97350428Y-133463819D01*
X96445666Y-134463819D02*
X97017094Y-134463819D01*
X96731380Y-134463819D02*
X96731380Y-133463819D01*
X96731380Y-133463819D02*
X96826618Y-133606676D01*
X96826618Y-133606676D02*
X96921856Y-133701914D01*
X96921856Y-133701914D02*
X97017094Y-133749533D01*
X97343819Y-109458333D02*
X96867628Y-109125000D01*
X97343819Y-108886905D02*
X96343819Y-108886905D01*
X96343819Y-108886905D02*
X96343819Y-109267857D01*
X96343819Y-109267857D02*
X96391438Y-109363095D01*
X96391438Y-109363095D02*
X96439057Y-109410714D01*
X96439057Y-109410714D02*
X96534295Y-109458333D01*
X96534295Y-109458333D02*
X96677152Y-109458333D01*
X96677152Y-109458333D02*
X96772390Y-109410714D01*
X96772390Y-109410714D02*
X96820009Y-109363095D01*
X96820009Y-109363095D02*
X96867628Y-109267857D01*
X96867628Y-109267857D02*
X96867628Y-108886905D01*
X97343819Y-110410714D02*
X97343819Y-109839286D01*
X97343819Y-110125000D02*
X96343819Y-110125000D01*
X96343819Y-110125000D02*
X96486676Y-110029762D01*
X96486676Y-110029762D02*
X96581914Y-109934524D01*
X96581914Y-109934524D02*
X96629533Y-109839286D01*
X116300580Y-123936333D02*
X116348200Y-123888714D01*
X116348200Y-123888714D02*
X116395819Y-123745857D01*
X116395819Y-123745857D02*
X116395819Y-123650619D01*
X116395819Y-123650619D02*
X116348200Y-123507762D01*
X116348200Y-123507762D02*
X116252961Y-123412524D01*
X116252961Y-123412524D02*
X116157723Y-123364905D01*
X116157723Y-123364905D02*
X115967247Y-123317286D01*
X115967247Y-123317286D02*
X115824390Y-123317286D01*
X115824390Y-123317286D02*
X115633914Y-123364905D01*
X115633914Y-123364905D02*
X115538676Y-123412524D01*
X115538676Y-123412524D02*
X115443438Y-123507762D01*
X115443438Y-123507762D02*
X115395819Y-123650619D01*
X115395819Y-123650619D02*
X115395819Y-123745857D01*
X115395819Y-123745857D02*
X115443438Y-123888714D01*
X115443438Y-123888714D02*
X115491057Y-123936333D01*
X115729152Y-124793476D02*
X116395819Y-124793476D01*
X115348200Y-124555381D02*
X116062485Y-124317286D01*
X116062485Y-124317286D02*
X116062485Y-124936333D01*
X91910009Y-114625666D02*
X91910009Y-114292333D01*
X92433819Y-114292333D02*
X91433819Y-114292333D01*
X91433819Y-114292333D02*
X91433819Y-114768523D01*
X92433819Y-115673285D02*
X92433819Y-115101857D01*
X92433819Y-115387571D02*
X91433819Y-115387571D01*
X91433819Y-115387571D02*
X91576676Y-115292333D01*
X91576676Y-115292333D02*
X91671914Y-115197095D01*
X91671914Y-115197095D02*
X91719533Y-115101857D01*
X162590819Y-125396905D02*
X161590819Y-125396905D01*
X161590819Y-125396905D02*
X161590819Y-125635000D01*
X161590819Y-125635000D02*
X161638438Y-125777857D01*
X161638438Y-125777857D02*
X161733676Y-125873095D01*
X161733676Y-125873095D02*
X161828914Y-125920714D01*
X161828914Y-125920714D02*
X162019390Y-125968333D01*
X162019390Y-125968333D02*
X162162247Y-125968333D01*
X162162247Y-125968333D02*
X162352723Y-125920714D01*
X162352723Y-125920714D02*
X162447961Y-125873095D01*
X162447961Y-125873095D02*
X162543200Y-125777857D01*
X162543200Y-125777857D02*
X162590819Y-125635000D01*
X162590819Y-125635000D02*
X162590819Y-125396905D01*
X161686057Y-126349286D02*
X161638438Y-126396905D01*
X161638438Y-126396905D02*
X161590819Y-126492143D01*
X161590819Y-126492143D02*
X161590819Y-126730238D01*
X161590819Y-126730238D02*
X161638438Y-126825476D01*
X161638438Y-126825476D02*
X161686057Y-126873095D01*
X161686057Y-126873095D02*
X161781295Y-126920714D01*
X161781295Y-126920714D02*
X161876533Y-126920714D01*
X161876533Y-126920714D02*
X162019390Y-126873095D01*
X162019390Y-126873095D02*
X162590819Y-126301667D01*
X162590819Y-126301667D02*
X162590819Y-126920714D01*
X162082819Y-105965905D02*
X161082819Y-105965905D01*
X161082819Y-105965905D02*
X161082819Y-106204000D01*
X161082819Y-106204000D02*
X161130438Y-106346857D01*
X161130438Y-106346857D02*
X161225676Y-106442095D01*
X161225676Y-106442095D02*
X161320914Y-106489714D01*
X161320914Y-106489714D02*
X161511390Y-106537333D01*
X161511390Y-106537333D02*
X161654247Y-106537333D01*
X161654247Y-106537333D02*
X161844723Y-106489714D01*
X161844723Y-106489714D02*
X161939961Y-106442095D01*
X161939961Y-106442095D02*
X162035200Y-106346857D01*
X162035200Y-106346857D02*
X162082819Y-106204000D01*
X162082819Y-106204000D02*
X162082819Y-105965905D01*
X162082819Y-107489714D02*
X162082819Y-106918286D01*
X162082819Y-107204000D02*
X161082819Y-107204000D01*
X161082819Y-107204000D02*
X161225676Y-107108762D01*
X161225676Y-107108762D02*
X161320914Y-107013524D01*
X161320914Y-107013524D02*
X161368533Y-106918286D01*
D11*
X131819578Y-126949000D02*
X131302422Y-126949000D01*
X131819578Y-128369000D02*
X131302422Y-128369000D01*
X119167000Y-110391578D02*
X119167000Y-109874422D01*
X120587000Y-110391578D02*
X120587000Y-109874422D01*
X138471000Y-115217578D02*
X138471000Y-114700422D01*
X139891000Y-115217578D02*
X139891000Y-114700422D01*
X131105000Y-104794422D02*
X131105000Y-105311578D01*
X132525000Y-104794422D02*
X132525000Y-105311578D01*
X122215000Y-105311578D02*
X122215000Y-104794422D01*
X123635000Y-105311578D02*
X123635000Y-104794422D01*
X115738000Y-117621422D02*
X115738000Y-118138578D01*
X117158000Y-117621422D02*
X117158000Y-118138578D01*
X177424000Y-109081000D02*
X177424000Y-105181000D01*
X179424000Y-109081000D02*
X177424000Y-109081000D01*
X179424000Y-109081000D02*
X179424000Y-105181000D01*
X177551000Y-128131000D02*
X177551000Y-124231000D01*
X179551000Y-128131000D02*
X177551000Y-128131000D01*
X179551000Y-128131000D02*
X179551000Y-124231000D01*
X138471000Y-122837578D02*
X138471000Y-122320422D01*
X139891000Y-122837578D02*
X139891000Y-122320422D01*
D10*
X122576000Y-113213000D02*
X122576000Y-113888000D01*
X122576000Y-113213000D02*
X123251000Y-113213000D01*
X122576000Y-122988000D02*
X121301000Y-122988000D01*
X122576000Y-123563000D02*
X122576000Y-122988000D01*
X122576000Y-123563000D02*
X123251000Y-123563000D01*
X132926000Y-113213000D02*
X132251000Y-113213000D01*
X132926000Y-113213000D02*
X132926000Y-113888000D01*
X132926000Y-123563000D02*
X132251000Y-123563000D01*
X132926000Y-123563000D02*
X132926000Y-122888000D01*
D11*
X129370000Y-103403000D02*
X129370000Y-106703000D01*
X129370000Y-106703000D02*
X125370000Y-106703000D01*
X99355000Y-109883578D02*
X99355000Y-109366422D01*
X100775000Y-109883578D02*
X100775000Y-109366422D01*
D10*
X94183000Y-98703000D02*
X94183000Y-104153000D01*
X94183000Y-104153000D02*
X101883000Y-104153000D01*
X101883000Y-98703000D02*
X101883000Y-104153000D01*
D11*
X113071000Y-109883578D02*
X113071000Y-109366422D01*
X114491000Y-109883578D02*
X114491000Y-109366422D01*
D10*
X95179000Y-127345000D02*
X95179000Y-132545000D01*
X95179000Y-132545000D02*
X100379000Y-132545000D01*
X100379000Y-127345000D02*
X95179000Y-127345000D01*
X100379000Y-132545000D02*
X100379000Y-127345000D01*
X98779000Y-129945000D02*
G75*
G02*
X96779000Y-129945000I-1000000J0D01*
G01*
X96779000Y-129945000D02*
G75*
G02*
X98779000Y-129945000I1000000J0D01*
G01*
D11*
X94529000Y-109883578D02*
X94529000Y-109366422D01*
X95949000Y-109883578D02*
X95949000Y-109366422D01*
X116881000Y-123844422D02*
X116881000Y-124361578D01*
X118301000Y-123844422D02*
X118301000Y-124361578D01*
X89249000Y-115561064D02*
X89249000Y-114356936D01*
X91069000Y-115561064D02*
X91069000Y-114356936D01*
X159136000Y-128385000D02*
X159136000Y-124485000D01*
X161136000Y-128385000D02*
X159136000Y-128385000D01*
X161136000Y-128385000D02*
X161136000Y-124485000D01*
X158628000Y-108954000D02*
X158628000Y-105054000D01*
X160628000Y-108954000D02*
X158628000Y-108954000D01*
X160628000Y-108954000D02*
X160628000Y-105054000D01*
%LPC*%
D12*
X165470000Y-106450000D03*
D13*
X170550000Y-106450000D03*
D12*
X175630000Y-106450000D03*
D14*
X167395001Y-103180000D03*
D15*
X168050000Y-102450000D03*
D16*
X173070000Y-101660000D03*
D15*
X173090000Y-101370000D03*
D17*
X169280000Y-111530000D03*
D18*
X171820000Y-111530000D03*
D12*
X146420000Y-106450000D03*
D13*
X151500000Y-106450000D03*
D12*
X156580000Y-106450000D03*
D14*
X148345001Y-103180000D03*
D15*
X149000000Y-102450000D03*
D16*
X154020000Y-101660000D03*
D15*
X154040000Y-101370000D03*
D17*
X150230000Y-111530000D03*
D18*
X152770000Y-111530000D03*
D12*
X165470000Y-125500000D03*
D13*
X170550000Y-125500000D03*
D12*
X175630000Y-125500000D03*
D14*
X167395001Y-122230000D03*
D15*
X168050000Y-121500000D03*
D16*
X173070000Y-120710000D03*
D15*
X173090000Y-120420000D03*
D17*
X169280000Y-130580000D03*
D18*
X171820000Y-130580000D03*
D12*
X146420000Y-125500000D03*
D13*
X151500000Y-125500000D03*
D12*
X156580000Y-125500000D03*
D14*
X148345001Y-122230000D03*
D15*
X149000000Y-121500000D03*
D16*
X154020000Y-120710000D03*
D15*
X154040000Y-120420000D03*
D17*
X150230000Y-130580000D03*
D18*
X152770000Y-130580000D03*
D19*
X132498500Y-127659000D03*
X130623500Y-127659000D03*
D20*
X119877000Y-111070500D03*
X119877000Y-109195500D03*
X139181000Y-115896500D03*
X139181000Y-114021500D03*
D21*
X131815000Y-104115500D03*
X131815000Y-105990500D03*
D20*
X122925000Y-105990500D03*
X122925000Y-104115500D03*
D21*
X116448000Y-116942500D03*
X116448000Y-118817500D03*
D22*
X178424000Y-108481000D03*
X178424000Y-105181000D03*
X178551000Y-127531000D03*
X178551000Y-124231000D03*
D20*
X139181000Y-123516500D03*
X139181000Y-121641500D03*
D23*
X122051000Y-122388000D03*
X122051000Y-121588000D03*
X122051000Y-120788000D03*
X122051000Y-119988000D03*
X122051000Y-119188000D03*
X122051000Y-118388000D03*
X122051000Y-117588000D03*
X122051000Y-116788000D03*
X122051000Y-115988000D03*
X122051000Y-115188000D03*
X122051000Y-114388000D03*
D24*
X123751000Y-112688000D03*
X124551000Y-112688000D03*
X125351000Y-112688000D03*
X126151000Y-112688000D03*
X126951000Y-112688000D03*
X127751000Y-112688000D03*
X128551000Y-112688000D03*
X129351000Y-112688000D03*
X130151000Y-112688000D03*
X130951000Y-112688000D03*
X131751000Y-112688000D03*
D23*
X133451000Y-114388000D03*
X133451000Y-115188000D03*
X133451000Y-115988000D03*
X133451000Y-116788000D03*
X133451000Y-117588000D03*
X133451000Y-118388000D03*
X133451000Y-119188000D03*
X133451000Y-119988000D03*
X133451000Y-120788000D03*
X133451000Y-121588000D03*
X133451000Y-122388000D03*
D24*
X131751000Y-124088000D03*
X130951000Y-124088000D03*
X130151000Y-124088000D03*
X129351000Y-124088000D03*
X128551000Y-124088000D03*
X127751000Y-124088000D03*
X126951000Y-124088000D03*
X126151000Y-124088000D03*
X125351000Y-124088000D03*
X124551000Y-124088000D03*
X123751000Y-124088000D03*
D25*
X128470000Y-105903000D03*
X126270000Y-105903000D03*
X126270000Y-104203000D03*
X128470000Y-104203000D03*
D20*
X100065000Y-110562500D03*
X100065000Y-108687500D03*
D26*
X99633000Y-103203000D03*
X98833000Y-103203000D03*
X98033000Y-103203000D03*
X97233000Y-103203000D03*
X96433000Y-103203000D03*
D27*
X101683000Y-98703000D03*
X94383000Y-98703000D03*
X101683000Y-103203000D03*
X94383000Y-103203000D03*
D20*
X113781000Y-110562500D03*
X113781000Y-108687500D03*
D28*
X94679000Y-131795000D03*
X100879000Y-128095000D03*
X94679000Y-128095000D03*
X100879000Y-131795000D03*
D20*
X95239000Y-110562500D03*
X95239000Y-108687500D03*
D21*
X117591000Y-123165500D03*
X117591000Y-125040500D03*
D29*
X90159000Y-116359000D03*
X90159000Y-113559000D03*
D22*
X160136000Y-127785000D03*
X160136000Y-124485000D03*
X159628000Y-108354000D03*
X159628000Y-105054000D03*
%LPD*%
M02*
