M48
; DRILL file {KiCad 8.0.4} date 2024-09-01T14:25:57-0600
; FORMAT={-:-/ absolute / inch / decimal}
; #@! TF.CreationDate,2024-09-01T14:25:57-06:00
; #@! TF.GenerationSoftware,Kicad,Pcbnew,8.0.4
; #@! TF.FileFunction,Plated,1,2,PTH
FMAT,2
INCH
; #@! TA.AperFunction,Plated,PTH,ViaDrill
T1C0.0157
; #@! TA.AperFunction,Plated,PTH,ComponentDrill
T2C0.0276
; #@! TA.AperFunction,Plated,PTH,ComponentDrill
T3C0.0409
; #@! TA.AperFunction,Plated,PTH,ComponentDrill
T4C0.0579
%
G90
G05
T1
X4.1096Y-5.0459
X4.3727Y-4.3529
X4.6296Y-4.3059
X4.7348Y-4.6007
X4.7348Y-4.7869
X5.2596Y-5.0259
X5.5496Y-4.5659
T3
X5.9146Y-4.3909
X5.9146Y-5.1409
X6.0146Y-4.3909
X6.0146Y-5.1409
X6.6646Y-4.3909
X6.6646Y-5.1409
X6.7646Y-4.3909
X6.7646Y-5.1409
T4
X5.8146Y-4.0909
X5.8146Y-4.8409
X5.8661Y-4.0335
X5.8661Y-4.7835
X6.063Y-4.0138
X6.063Y-4.7638
X6.0646Y-3.9909
X6.0646Y-4.7409
X6.5646Y-4.0909
X6.5646Y-4.8409
X6.6161Y-4.0335
X6.6161Y-4.7835
X6.813Y-4.0138
X6.813Y-4.7638
X6.8146Y-3.9909
X6.8146Y-4.7409
T2
G00X3.7159Y-3.8623
M15
G01X3.7159Y-3.9096
M16
G05
G00X3.7159Y-4.0395
M15
G01X3.7159Y-4.0867
M16
G05
G00X4.0033Y-3.8623
M15
G01X4.0033Y-3.9096
M16
G05
G00X4.0033Y-4.0395
M15
G01X4.0033Y-4.0867
M16
G05
M30
